<svg xmlns="http://www.w3.org/2000/svg" baseProfile="full" version="1.1" width="1470px" height="615px" style="fill: none; width: 1470px; height: 615px;"><path d="" style="stroke-width: 15; stroke-linecap: round; stroke-linejoin: round; stroke: rgb(136, 136, 136); fill: none;"/><path d="" style="stroke-width: 15; stroke-linecap: round; stroke-linejoin: round; stroke: rgb(175, 254, 199); fill: none;"/><path d="M90,90 L90,90 L90,120 L120,120 L150,120 L150,90 L120,90 L120,180 L120,210 L90,210 L90,180 L150,180 L150,210 M270,90 A30,30 0 0,0 300,120 L300,120 L330,120 L330,90 L300,90 L300,180 L300,210 L270,210 L270,180 L300,180 A30,30 0 0,1 330,210 M450,90 A30,30 0 0,1 480,120 L480,120 L510,120 L510,90 L480,90 L480,180 L480,210 L450,210 L450,180 L480,180 A30,30 0 0,0 510,210 M660,75 L660,75 L600,135 L720,135 L690,105 L630,195 L600,165 L720,165 L660,225 M840,75 A60,60 0 0,1 780,135 L780,135 L900,135 L870,105 L810,195 L780,165 L900,165 A60,60 0 0,1 840,225 M960,135 A60,60 0 0,1 1020,75 M960,135 L960,135 L1080,135 L1050,105 L990,195 L960,165 L1080,165 A60,60 0 0,1 1020,225 M750,240 A60,60 0 0,0 690,300 L690,300 L750,300 L765,300 L765,285 L750,285 L750,315 L750,330 L750,345 L735,345 L735,330 L810,330 A60,60 0 0,1 750,390 M930,240 A60,60 0 0,1 870,300 L870,300 L930,300 L945,300 L945,285 L930,285 L930,315 L930,330 L930,345 L915,345 L915,330 L990,330 A60,60 0 0,1 930,390 M1185,240 A45,60 0 0,1 1140,300 L1140,300 L1230,300 L1230,270 L1200,270 L1200,360 L1170,360 L1170,330 L1260,330 A45,60 0 0,1 1215,390 M1140,480 L1140,480 L1200,480 L1230,480 L1230,450 L1200,450 L1200,495 L1200,510 L1200,540 L1170,540 L1170,510 L1260,510 A60,60 0 0,1 1200,570 M1140,480 A60,60 0 0,1 1200,420 M840,450 L840,450 L810,495 L840,495 L855,495 L855,480 L840,480 L840,495 L840,510 L840,525 L825,525 L825,510 L870,510 L840,555 " style="stroke-width: 4; stroke-linecap: round; stroke-linejoin: round; stroke: rgb(255, 255, 255); fill: none;"/></svg>